<?xml version="1.0" encoding="utf-8"?>
<!-- Generator: Adobe Illustrator 22.0.1, SVG Export Plug-In . SVG Version: 6.00 Build 0)  -->
<svg version="1.1" id="Capa_1" xmlns="http://www.w3.org/2000/svg" xmlns:xlink="http://www.w3.org/1999/xlink" x="0px" y="0px"
	 viewBox="0 0 24 24" style="enable-background:new 0 0 24 24;" xml:space="preserve">
<style type="text/css">
	.st0{fill:#ffffff;}
</style>
<g>
	<path class="st0" d="M4.1,19.5c-0.1,0-0.2,0-0.2,0.1c-0.1,0.1-0.1,0.2-0.1,0.2c0,0.1,0,0.2,0.1,0.2c0.1,0.1,0.2,0.1,0.2,0.1
		s0.2,0,0.2-0.1c0.1-0.1,0.1-0.2,0.1-0.2c0-0.1,0-0.2-0.1-0.2C4.3,19.6,4.2,19.5,4.1,19.5z"/>
	<path class="st0" d="M23.4,15.9l-2.7,2.7c-0.2-0.1-0.5-0.2-0.8-0.2s-0.5,0.1-0.8,0.2L18.5,18c0.3-0.6,0.2-1.3-0.3-1.9l-1.4-1.4
		c-0.7-0.7-1.2-1.7-1.2-2.8s0.4-2.1,1.2-2.8l1.4-1.4c0.5-0.5,0.6-1.3,0.3-1.9l0.6-0.6c0.2,0.1,0.5,0.2,0.8,0.2s0.5-0.1,0.8-0.2
		l2.7,2.7c0.1,0.1,0.2,0.1,0.2,0.1c0.1,0,0.2,0,0.2-0.1C24,8,24,7.8,23.9,7.6l-2.7-2.7c0.1-0.2,0.2-0.5,0.2-0.8
		c0-0.8-0.7-1.5-1.5-1.5c-0.3,0-0.5,0.1-0.8,0.2l-2.7-2.7C16.2,0,16,0,15.9,0.1s-0.1,0.4,0,0.5l2.7,2.7c-0.1,0.2-0.2,0.5-0.2,0.8
		s0.1,0.5,0.2,0.8L18,5.5c-0.2-0.1-0.5-0.2-0.8-0.2c-0.4,0-0.8,0.2-1,0.4l-1.4,1.4C14,7.9,13.1,8.3,12,8.3S9.9,7.9,9.2,7.1L7.8,5.7
		c-0.3-0.3-0.7-0.4-1-0.4C6.5,5.3,6.2,5.3,6,5.5L5.4,4.9c0.1-0.2,0.2-0.5,0.2-0.8c0-0.3-0.1-0.5-0.2-0.8l2.7-2.7
		c0.1-0.1,0.1-0.4,0-0.5S7.8,0,7.6,0.1L4.9,2.8C4.7,2.7,4.4,2.6,4.1,2.6c-0.8,0-1.5,0.7-1.5,1.5c0,0.3,0.1,0.5,0.2,0.8L0.1,7.6
		C0,7.8,0,8,0.1,8.1c0.1,0.1,0.2,0.1,0.2,0.1s0.2,0,0.2-0.1l2.7-2.7c0.2,0.1,0.5,0.2,0.8,0.2s0.5-0.1,0.8-0.2L5.5,6
		C5.1,6.6,5.2,7.3,5.7,7.8l1.4,1.4c0.7,0.7,1.2,1.7,1.2,2.8s-0.4,2.1-1.2,2.8l-1.4,1.4c-0.5,0.5-0.6,1.3-0.3,1.9l-0.6,0.6
		c-0.2-0.1-0.5-0.2-0.8-0.2s-0.5,0.1-0.8,0.2l-2.7-2.7c-0.1-0.1-0.4-0.1-0.5,0C0,16,0,16.2,0.1,16.4l2.7,2.7
		c-0.1,0.2-0.2,0.5-0.2,0.8c0,0.8,0.7,1.5,1.5,1.5c0.3,0,0.5-0.1,0.8-0.2l2.7,2.7C7.7,24,7.8,24,7.9,24C8,24,8,24,8.1,23.9
		c0.1-0.1,0.1-0.4,0-0.5l-2.7-2.7c0.1-0.2,0.2-0.5,0.2-0.8s-0.1-0.5-0.2-0.8L6,18.5c0.2,0.1,0.5,0.2,0.8,0.2c0.4,0,0.8-0.2,1-0.4
		l1.4-1.4c0.7-0.7,1.7-1.2,2.8-1.2s2.1,0.4,2.8,1.2l1.4,1.4c0.3,0.3,0.7,0.4,1,0.4c0.3,0,0.5-0.1,0.8-0.2l0.6,0.6
		c-0.1,0.2-0.2,0.5-0.2,0.8s0.1,0.5,0.2,0.8l-2.7,2.7c-0.1,0.1-0.1,0.4,0,0.5C16,24,16,24,16.1,24c0.1,0,0.2,0,0.2-0.1l2.7-2.7
		c0.2,0.1,0.5,0.2,0.8,0.2c0.8,0,1.5-0.7,1.5-1.5c0-0.3-0.1-0.5-0.2-0.8l2.7-2.7c0.1-0.1,0.1-0.4,0-0.5
		C23.8,15.7,23.5,15.7,23.4,15.9z M19.9,3.3c0.4,0,0.8,0.3,0.8,0.8s-0.3,0.8-0.8,0.8c-0.4,0-0.8-0.3-0.8-0.8
		C19.1,3.7,19.5,3.3,19.9,3.3z M3.3,4.1c0-0.4,0.3-0.8,0.8-0.8c0.4,0,0.8,0.3,0.8,0.8S4.5,4.9,4.1,4.9C3.7,4.9,3.3,4.5,3.3,4.1z
		 M4.1,20.7c-0.4,0-0.8-0.3-0.8-0.8s0.3-0.8,0.8-0.8s0.8,0.3,0.8,0.8C4.9,20.3,4.5,20.7,4.1,20.7z M16.7,17.8l-1.4-1.4
		c-0.8-0.8-1.8-1.3-2.9-1.4v-1.9c0-0.2-0.2-0.4-0.4-0.4s-0.4,0.2-0.4,0.4V15c-1.1,0.1-2.2,0.6-2.9,1.4l-1.4,1.4
		C7.1,17.9,6.9,18,6.7,18c-0.2,0-0.4-0.1-0.6-0.3c-0.3-0.3-0.2-0.8,0.1-1.1l1.4-1.4c0.8-0.8,1.3-1.8,1.4-2.9h1.9
		c0.2,0,0.4-0.2,0.4-0.4c0-0.2-0.2-0.4-0.4-0.4H9c-0.1-1.1-0.6-2.2-1.4-2.9L6.2,7.3C5.9,7,5.9,6.5,6.2,6.2C6.3,6.1,6.5,6,6.7,6
		C6.9,6,7.1,6,7.3,6.2l1.4,1.4c0.8,0.8,1.8,1.3,2.9,1.4v1.9c0,0.2,0.2,0.4,0.4,0.4c0.2,0,0.4-0.2,0.4-0.4V9c1.1-0.1,2.2-0.6,2.9-1.4
		l1.4-1.4C16.9,6,17,6,17.3,6c0.2,0,0.4,0.1,0.6,0.3c0.3,0.3,0.2,0.8-0.1,1.1l-1.4,1.4c-0.8,0.8-1.3,1.8-1.4,2.9h-1.9
		c-0.2,0-0.4,0.2-0.4,0.4c0,0.2,0.2,0.4,0.4,0.4H15c0.1,1.1,0.6,2.2,1.4,2.9l1.4,1.4c0.3,0.3,0.3,0.8,0.1,1.1
		c-0.1,0.2-0.4,0.3-0.6,0.3C17,18,16.9,17.9,16.7,17.8z M19.9,20.7c-0.4,0-0.8-0.3-0.8-0.8s0.3-0.8,0.8-0.8c0.4,0,0.8,0.3,0.8,0.8
		C20.7,20.3,20.3,20.7,19.9,20.7z"/>
	<path class="st0" d="M19.9,19.5c-0.1,0-0.2,0-0.2,0.1c-0.1,0.1-0.1,0.2-0.1,0.2c0,0.1,0,0.2,0.1,0.2c0.1,0.1,0.2,0.1,0.2,0.1
		s0.2,0,0.2-0.1c0.1-0.1,0.1-0.2,0.1-0.2c0-0.1,0-0.2-0.1-0.2C20.1,19.6,20,19.5,19.9,19.5z"/>
	<path class="st0" d="M19.9,4.5c0.1,0,0.2,0,0.2-0.1c0.1-0.1,0.1-0.2,0.1-0.2s0-0.2-0.1-0.2S20,3.8,19.9,3.8s-0.2,0-0.2,0.1
		c-0.1,0.1-0.1,0.2-0.1,0.2s0,0.2,0.1,0.2C19.7,4.4,19.8,4.5,19.9,4.5z"/>
	<path class="st0" d="M4.1,3.8c-0.1,0-0.2,0-0.2,0.1C3.8,3.9,3.8,4,3.8,4.1s0,0.2,0.1,0.2C3.9,4.4,4,4.5,4.1,4.5s0.2,0,0.2-0.1
		c0.1-0.1,0.1-0.2,0.1-0.2s0-0.2-0.1-0.2C4.3,3.8,4.2,3.8,4.1,3.8z"/>
</g>
</svg>
