<?xml version="1.0" encoding="utf-8"?>
<!-- Generator: Adobe Illustrator 22.0.1, SVG Export Plug-In . SVG Version: 6.00 Build 0)  -->
<svg version="1.1" id="Capa_1" xmlns="http://www.w3.org/2000/svg" xmlns:xlink="http://www.w3.org/1999/xlink" x="0px" y="0px"
	 viewBox="0 0 24 24" style="enable-background:new 0 0 24 24;fill:#ffffff" xml:space="preserve">
<g>
	<g>
		<g>
			<path d="M12,10.1c-1.1,0-1.9,0.9-1.9,1.9s0.9,1.9,1.9,1.9s1.9-0.9,1.9-1.9S13.1,10.1,12,10.1z M12,13.2c-0.6,0-1.2-0.5-1.2-1.2
				s0.5-1.2,1.2-1.2s1.2,0.5,1.2,1.2S12.6,13.2,12,13.2z"/>
			<path d="M17.8,19c0,0.5,0.3,0.9,0.8,1.1v1.6c-1.3-0.2-2.3-1.3-2.3-2.7c0-0.2,0-0.5,0.1-0.7l-0.7-0.2c-0.1,0.3-0.1,0.6-0.1,0.9
				c0,1.9,1.6,3.5,3.5,3.5s3.5-1.6,3.5-3.5s-1.6-3.5-3.5-3.5c-0.1,0-0.3,0-0.4,0l0,0.4V17l-3.1-4.4c0-0.2,0.1-0.4,0.1-0.6
				s0-0.4-0.1-0.6l3.8-5.3c0.4-0.1,0.7-0.4,0.9-0.8h1.6c-0.2,1.3-1.3,2.3-2.7,2.3c-0.1,0-0.2,0-0.3,0l-0.1,0.8c0.1,0,0.3,0,0.4,0
				c1.9,0,3.5-1.6,3.5-3.5S20.9,1.5,19,1.5S15.5,3.1,15.5,5c0,0.3,0,0.6,0.1,0.9l0.7-0.2c0-0.1,0-0.2-0.1-0.3h1.3l-4.3,3.3
				c-0.4-0.1-0.8-0.2-1.2-0.2s-0.8,0.1-1.2,0.2L6.2,5.2c0-0.1,0-0.1,0-0.2c0-0.5-0.3-0.9-0.8-1.1V2.4C6.7,2.5,7.7,3.7,7.7,5
				c0,0.2,0,0.5-0.1,0.7l0.7,0.2C8.5,5.6,8.5,5.3,8.5,5C8.5,3.1,7,1.5,5,1.5S1.5,3.1,1.5,5S3.1,8.5,5,8.5c0.1,0,0.3,0,0.4,0l0-0.4V7
				l3.1,4.4c0,0.2-0.1,0.4-0.1,0.6s0,0.4,0.1,0.6l-3.8,5.3c-0.4,0.1-0.7,0.4-0.9,0.8H2.4c0.2-1.3,1.3-2.3,2.7-2.3c0.1,0,0.2,0,0.3,0
				l0.1-0.8c-0.1,0-0.3,0-0.4,0c-1.9,0-3.5,1.6-3.5,3.5s1.6,3.5,3.5,3.5s3.5-1.6,3.5-3.5c0-0.3,0-0.6-0.1-0.9l-0.7,0.2
				c0,0.1,0,0.2,0.1,0.3H6.4l4.3-3.3c0.4,0.1,0.8,0.2,1.2,0.2c0.4,0,0.8-0.1,1.2-0.2l4.6,3.5C17.8,18.8,17.8,18.9,17.8,19z
				 M19.4,16.3c1.3,0.2,2.3,1.3,2.3,2.7c0,1.4-1,2.5-2.3,2.7v-1.6c0.4-0.2,0.8-0.6,0.8-1.1s-0.3-0.9-0.8-1.1V16.3z M19,18.6
				c0.2,0,0.4,0.2,0.4,0.4c0,0.2-0.2,0.4-0.4,0.4c-0.2,0-0.4-0.2-0.4-0.4C18.6,18.8,18.8,18.6,19,18.6z M4.6,7.7
				C3.3,7.5,2.3,6.4,2.3,5s1-2.5,2.3-2.7v1.6C4.2,4.1,3.9,4.5,3.9,5S4.2,6,4.6,6.1V7.7z M5,5.4C4.8,5.4,4.6,5.2,4.6,5S4.8,4.6,5,4.6
				S5.4,4.8,5.4,5S5.2,5.4,5,5.4z M19,5.4c-0.2,0-0.4-0.2-0.4-0.4s0.2-0.4,0.4-0.4c0.2,0,0.4,0.2,0.4,0.4S19.2,5.4,19,5.4z
				 M16.3,4.6c0.2-1.3,1.3-2.3,2.7-2.3c1.4,0,2.5,1,2.7,2.3h-1.6c-0.2-0.4-0.6-0.8-1.1-0.8S18,4.2,17.9,4.6H16.3z M18.2,5.9
				c0,0,0.1,0.1,0.1,0.1l-3.2,4.5c-0.3-0.5-0.7-1-1.2-1.4L18.2,5.9z M5.7,6c0.1,0,0.1-0.1,0.1-0.1L10,9.1C9.5,9.5,9.1,10,8.9,10.5
				L5.7,6z M5,18.6c0.2,0,0.4,0.2,0.4,0.4c0,0.2-0.2,0.4-0.4,0.4S4.6,19.2,4.6,19C4.6,18.8,4.8,18.6,5,18.6z M7.7,19.4
				c-0.2,1.3-1.3,2.3-2.7,2.3s-2.5-1-2.7-2.3h1.6c0.2,0.4,0.6,0.8,1.1,0.8s0.9-0.3,1.1-0.8H7.7z M5.8,18.1c0,0-0.1-0.1-0.1-0.1
				l3.2-4.5c0.3,0.5,0.7,1,1.2,1.4L5.8,18.1z M12,14.7c-1.5,0-2.7-1.2-2.7-2.7s1.2-2.7,2.7-2.7s2.7,1.2,2.7,2.7S13.5,14.7,12,14.7z
				 M14,14.9c0.5-0.3,0.9-0.8,1.2-1.4l3.2,4.5c-0.1,0-0.1,0.1-0.1,0.1L14,14.9z"/>
			<path d="M15,6.5C14.8,6,14.7,5.5,14.7,5c0-2.3,1.9-4.3,4.3-4.3s4.3,1.9,4.3,4.3S21.3,9.3,19,9.3c-0.4,0-0.7,0-1.1-0.1l-0.2,0.7
				c0.4,0.1,0.8,0.2,1.3,0.2c2.8,0,5-2.3,5-5s-2.3-5-5-5s-5,2.3-5,5c0,0.6,0.1,1.1,0.3,1.7L15,6.5z"/>
			<path d="M9,17.5C9.2,18,9.3,18.5,9.3,19c0,2.3-1.9,4.3-4.3,4.3S0.8,21.3,0.8,19s1.9-4.3,4.3-4.3c0.4,0,0.7,0,1.1,0.1l0.2-0.7
				C5.9,14,5.5,13.9,5,13.9c-2.8,0-5,2.3-5,5s2.3,5,5,5s5-2.3,5-5c0-0.6-0.1-1.1-0.3-1.7L9,17.5z"/>
			<path d="M19,13.9c-0.4,0-0.8,0.1-1.3,0.2l0.2,0.7c0.3-0.1,0.7-0.1,1.1-0.1c2.3,0,4.3,1.9,4.3,4.3s-1.9,4.3-4.3,4.3
				s-4.3-1.9-4.3-4.3c0-0.5,0.1-1,0.2-1.4l-0.7-0.3c-0.2,0.5-0.3,1.1-0.3,1.7c0,2.8,2.3,5,5,5s5-2.3,5-5S21.7,13.9,19,13.9z"/>
			<path d="M5,10.1c0.4,0,0.8-0.1,1.3-0.2L6.1,9.2C5.8,9.2,5.4,9.3,5,9.3C2.7,9.3,0.8,7.4,0.8,5S2.7,0.8,5,0.8S9.3,2.7,9.3,5
				c0,0.5-0.1,1-0.2,1.4l0.7,0.3C10,6.2,10.1,5.6,10.1,5c0-2.8-2.3-5-5-5S0,2.3,0,5S2.3,10.1,5,10.1z"/>
		</g>
	</g>
</g>
</svg>
