<?xml version="1.0" encoding="utf-8"?>
<!-- Generator: Adobe Illustrator 22.0.1, SVG Export Plug-In . SVG Version: 6.00 Build 0)  -->
<svg version="1.1" id="Capa_1" xmlns="http://www.w3.org/2000/svg" xmlns:xlink="http://www.w3.org/1999/xlink" x="0px" y="0px"
	 viewBox="0 0 24 24" style="enable-background:new 0 0 24 24;fill:#ffffff" xml:space="preserve">
<path d="M23.6,7.1h-4.2V6.7c0-0.2-0.2-0.4-0.4-0.4s-0.4,0.2-0.4,0.4v0.4h-4.2c-0.2,0-0.4,0.2-0.4,0.4s0.2,0.4,0.4,0.4h4.2v0.5
	c-0.4,0.1-0.8,0.6-0.8,1v0.4h-2C15.9,9.3,15.5,9,15,9H9c-0.5,0-0.9,0.3-1,0.8H6V9.4c0-0.5-0.3-0.9-0.8-1V7.8h4.2
	c0.2,0,0.4-0.2,0.4-0.4S9.6,7.1,9.4,7.1H5.2V6.7c0-0.2-0.2-0.4-0.4-0.4S4.5,6.5,4.5,6.7v0.4H0.4C0.2,7.1,0,7.3,0,7.5
	s0.2,0.4,0.4,0.4h4.2v0.5c-0.4,0.1-0.8,0.6-0.8,1v1.5c0,0.6,0.5,1.1,1.1,1.1S6,11.5,6,10.9v-0.4h2c0.1,0.4,0.6,0.8,1,0.8h0.4v1.2
	c-0.6,0-1.2,0.5-1.3,1.1l-0.8,3.4H6.7c-0.2,0-0.4,0.2-0.4,0.4s0.2,0.4,0.4,0.4h0.8c0,0,0,0,0,0c0,0,0,0,0,0h0.8
	c0.2,0,0.4-0.2,0.4-0.4s-0.2-0.4-0.4-0.4H7.9l0.8-3.2c0.1-0.3,0.4-0.6,0.7-0.6c0.1,0.4,0.6,0.7,1,0.7h3c0.5,0,0.9-0.3,1-0.7
	c0.3,0,0.6,0.3,0.7,0.6l0.8,3.2h-0.3c-0.2,0-0.4,0.2-0.4,0.4s0.2,0.4,0.4,0.4h0.8c0,0,0,0,0,0c0,0,0,0,0,0h0.8
	c0.2,0,0.4-0.2,0.4-0.4s-0.2-0.4-0.4-0.4h-0.5l-0.8-3.4c-0.2-0.6-0.7-1.1-1.3-1.1v-1.2H15c0.5,0,0.9-0.3,1-0.8h2v0.4
	c0,0.6,0.5,1.1,1.1,1.1s1.1-0.5,1.1-1.1V9.4c0-0.5-0.3-0.9-0.8-1V7.8h4.2c0.2,0,0.4-0.2,0.4-0.4S23.8,7.1,23.6,7.1z M5.3,10.9
	c0,0.2-0.2,0.4-0.4,0.4s-0.4-0.2-0.4-0.4V9.4C4.5,9.1,4.6,9,4.9,9s0.4,0.2,0.4,0.4V10.9z M15,10.5h-0.8h-0.8c-0.2,0-0.4,0.2-0.4,0.4
	s0.2,0.4,0.4,0.4h0.4v1.5c0,0.2-0.2,0.4-0.4,0.4h-3c-0.2,0-0.4-0.2-0.4-0.4v-1.5H12c0.2,0,0.4-0.2,0.4-0.4s-0.2-0.4-0.4-0.4H9.7H9
	c-0.2,0-0.4-0.2-0.4-0.4S8.8,9.7,9,9.7h6c0.2,0,0.4,0.2,0.4,0.4S15.2,10.5,15,10.5z M19.5,10.9c0,0.2-0.2,0.4-0.4,0.4
	c-0.2,0-0.4-0.2-0.4-0.4V9.4c0-0.2,0.2-0.4,0.4-0.4c0.2,0,0.4,0.2,0.4,0.4V10.9z"/>
</svg>
