<?xml version="1.0" encoding="utf-8"?>
<!-- Generator: Adobe Illustrator 22.0.1, SVG Export Plug-In . SVG Version: 6.00 Build 0)  -->
<svg version="1.1" id="Capa_1" xmlns="http://www.w3.org/2000/svg" xmlns:xlink="http://www.w3.org/1999/xlink" x="0px" y="0px"
	 viewBox="0 0 24 24" style="enable-background:new 0 0 24 24;fill:#ffffff" xml:space="preserve">
<g>
	<path d="M23.6,2.1h-3v0c0-0.6-0.5-1.1-1.1-1.1S18.4,1.4,18.4,2v0h-3c-0.2,0-0.4,0.2-0.4,0.4c0,0.2,0.2,0.4,0.4,0.4H18v0.4
		c0,0,0,0,0,0h-2.3c0,0,0,0,0,0H8.2c0,0,0,0,0,0H6c0,0,0,0,0,0V2.8h2.7C8.8,2.8,9,2.6,9,2.4c0-0.2-0.2-0.4-0.4-0.4h-3v0
		c0-0.6-0.5-1.1-1.1-1.1S3.4,1.4,3.4,2v0h-3C0.2,2.1,0,2.2,0,2.4c0,0.2,0.2,0.4,0.4,0.4H3v0.4C3,4,3.7,4.6,4.5,4.6
		c0.6,0,1-0.3,1.3-0.8H8l0.3,1c0.3,0.8,1,1.3,1.8,1.3h0.1v1.2h0c-0.8,0-1.5,0.4-1.9,1.1l-0.6,1c-0.1,0.1-0.1,0.2,0,0.4
		c0.1,0.1,0.2,0.2,0.3,0.2h8.1c0.1,0,0.2-0.1,0.3-0.2c0.1-0.1,0.1-0.2,0-0.4l-0.6-1c-0.4-0.7-1.1-1.1-1.9-1.1h0V6.1h0.1
		c0.8,0,1.5-0.5,1.8-1.3l0.3-1h2.2c0.3,0.4,0.7,0.8,1.3,0.8C20.3,4.6,21,4,21,3.2V2.8h2.7c0.2,0,0.4-0.2,0.4-0.4
		C24,2.2,23.8,2.1,23.6,2.1z M4.1,2c0-0.2,0.2-0.4,0.4-0.4S4.9,1.8,4.9,2v0L4.1,2L4.1,2z M4.5,3.9c-0.4,0-0.8-0.3-0.8-0.8V2.8h1.5
		v0.4C5.3,3.6,4.9,3.9,4.5,3.9z M15.2,8.8l0.3,0.4H8.6l0.3-0.4C9.1,8.3,9.6,8,10.1,8h3.8C14.4,8,14.9,8.3,15.2,8.8z M13.2,7.3h-2.3
		V6.1h2.3V7.3z M15,4.6c-0.2,0.5-0.6,0.8-1.1,0.8h-3.8C9.6,5.4,9.1,5.1,9,4.6L8.7,3.9h6.5L15,4.6z M19.1,2c0-0.2,0.2-0.4,0.4-0.4
		s0.4,0.2,0.4,0.4v0L19.1,2L19.1,2z M20.3,3.2c0,0.4-0.3,0.8-0.8,0.8s-0.8-0.3-0.8-0.8V2.8h1.5V3.2z"/>
	<path d="M12,14.8c-0.2,0-0.4,0.2-0.4,0.4c0,0.2,0.2,0.4,0.4,0.4c0.2,0,0.4-0.2,0.4-0.4C12.4,15,12.2,14.8,12,14.8z"/>
	<path d="M12,11.8c-0.2,0-0.4,0.2-0.4,0.4c0,0.2,0.2,0.4,0.4,0.4c0.2,0,0.4-0.2,0.4-0.4C12.4,12,12.2,11.8,12,11.8z"/>
	<path d="M12,10.3c-0.2,0-0.4,0.2-0.4,0.4c0,0.2,0.2,0.4,0.4,0.4c0.2,0,0.4-0.2,0.4-0.4C12.4,10.5,12.2,10.3,12,10.3z"/>
	<path d="M12,16.3c-0.2,0-0.4,0.2-0.4,0.4c0,0.2,0.2,0.4,0.4,0.4c0.2,0,0.4-0.2,0.4-0.4C12.4,16.5,12.2,16.3,12,16.3z"/>
	<path d="M12,13.3c-0.2,0-0.4,0.2-0.4,0.4c0,0.2,0.2,0.4,0.4,0.4c0.2,0,0.4-0.2,0.4-0.4C12.4,13.5,12.2,13.3,12,13.3z"/>
	<path d="M12,22.3c-0.2,0-0.4,0.2-0.4,0.4c0,0.2,0.2,0.4,0.4,0.4c0.2,0,0.4-0.2,0.4-0.4C12.4,22.5,12.2,22.3,12,22.3z"/>
	<path d="M12,17.8c-0.2,0-0.4,0.2-0.4,0.4c0,0.2,0.2,0.4,0.4,0.4c0.2,0,0.4-0.2,0.4-0.4C12.4,18,12.2,17.8,12,17.8z"/>
	<path d="M12,19.3c-0.2,0-0.4,0.2-0.4,0.4c0,0.2,0.2,0.4,0.4,0.4c0.2,0,0.4-0.2,0.4-0.4C12.4,19.5,12.2,19.3,12,19.3z"/>
	<path d="M12,20.8c-0.2,0-0.4,0.2-0.4,0.4c0,0.2,0.2,0.4,0.4,0.4c0.2,0,0.4-0.2,0.4-0.4C12.4,21,12.2,20.8,12,20.8z"/>
	<path d="M15.2,10.3c-0.2,0.1-0.2,0.3-0.1,0.5c0.1,0.1,0.2,0.2,0.3,0.2c0.1,0,0.1,0,0.2,0c0.2-0.1,0.2-0.3,0.1-0.5
		C15.6,10.3,15.4,10.2,15.2,10.3z"/>
	<path d="M16.1,12.3c0.1,0,0.1,0,0.2,0c0.2-0.1,0.2-0.3,0.1-0.5c-0.1-0.2-0.3-0.2-0.5-0.1c-0.2,0.1-0.2,0.3-0.1,0.5
		C15.9,12.3,16,12.3,16.1,12.3z"/>
	<path d="M20.2,18.3c-0.1-0.2-0.3-0.2-0.5-0.1c-0.2,0.1-0.2,0.3-0.1,0.5c0.1,0.1,0.2,0.2,0.3,0.2c0.1,0,0.1,0,0.2,0
		C20.3,18.7,20.3,18.5,20.2,18.3z"/>
	<path d="M17.7,15c0.1,0,0.1,0,0.2,0c0.2-0.1,0.2-0.3,0.1-0.5c-0.1-0.2-0.3-0.2-0.5-0.1c-0.2,0.1-0.2,0.3-0.1,0.5
		C17.4,14.9,17.5,15,17.7,15z"/>
	<path d="M19.5,17c-0.1-0.2-0.3-0.2-0.5-0.1c-0.2,0.1-0.2,0.3-0.1,0.5c0.1,0.1,0.2,0.2,0.3,0.2c0.1,0,0.1,0,0.2,0
		C19.5,17.4,19.6,17.2,19.5,17z"/>
	<path d="M18.7,15.7c-0.1-0.2-0.3-0.2-0.5-0.1c-0.2,0.1-0.2,0.3-0.1,0.5c0.1,0.1,0.2,0.2,0.3,0.2c0.1,0,0.1,0,0.2-0.1
		C18.8,16.1,18.8,15.9,18.7,15.7z"/>
	<path d="M21,19.6c-0.1-0.2-0.3-0.2-0.5-0.1c-0.2,0.1-0.2,0.3-0.1,0.5c0.1,0.1,0.2,0.2,0.3,0.2c0.1,0,0.1,0,0.2,0
		C21,20,21.1,19.8,21,19.6z"/>
	<path d="M21.2,20.8c-0.2,0.1-0.2,0.3-0.1,0.5c0.1,0.1,0.2,0.2,0.3,0.2c0.1,0,0.1,0,0.2,0c0.2-0.1,0.2-0.3,0.1-0.5
		C21.6,20.7,21.4,20.7,21.2,20.8z"/>
	<path d="M16.7,13c-0.2,0.1-0.2,0.3-0.1,0.5c0.1,0.1,0.2,0.2,0.3,0.2c0.1,0,0.1,0,0.2-0.1c0.2-0.1,0.2-0.3,0.1-0.5
		C17.1,12.9,16.9,12.8,16.7,13z"/>
	<path d="M14.7,12c-0.1-0.2-0.3-0.3-0.5-0.2C14,11.8,13.9,12,14,12.2c0.1,0.2,0.2,0.3,0.4,0.3c0,0,0.1,0,0.1,0
		C14.7,12.4,14.8,12.2,14.7,12z"/>
	<path d="M16.5,17.7c-0.1-0.2-0.3-0.3-0.5-0.2c-0.2,0.1-0.3,0.3-0.2,0.5c0.1,0.2,0.2,0.3,0.4,0.3c0,0,0.1,0,0.1,0
		C16.5,18.1,16.6,17.9,16.5,17.7z"/>
	<path d="M15.2,13.4c-0.1-0.2-0.3-0.3-0.5-0.2c-0.2,0.1-0.3,0.3-0.2,0.5c0.1,0.2,0.2,0.3,0.4,0.3c0,0,0.1,0,0.1,0
		C15.1,13.8,15.2,13.6,15.2,13.4z"/>
	<path d="M16.1,16.3C16,16.1,15.8,16,15.6,16c-0.2,0.1-0.3,0.3-0.2,0.5c0,0.2,0.2,0.3,0.4,0.3c0,0,0.1,0,0.1,0
		C16,16.7,16.1,16.5,16.1,16.3z"/>
	<path d="M15.6,14.9c-0.1-0.2-0.3-0.3-0.5-0.2c-0.2,0.1-0.3,0.3-0.2,0.5c0.1,0.2,0.2,0.3,0.4,0.3c0,0,0.1,0,0.1,0
		C15.6,15.3,15.7,15,15.6,14.9z"/>
	<path d="M17.5,21.8c-0.2,0.1-0.3,0.3-0.2,0.5c0.1,0.2,0.2,0.3,0.4,0.3c0,0,0.1,0,0.1,0c0.2-0.1,0.3-0.3,0.2-0.5
		C17.9,21.8,17.6,21.7,17.5,21.8z"/>
	<path d="M17,19.1c-0.1-0.2-0.3-0.3-0.5-0.2c-0.2,0.1-0.3,0.3-0.2,0.5c0.1,0.2,0.2,0.3,0.4,0.3c0,0,0.1,0,0.1,0
		C17,19.5,17.1,19.3,17,19.1z"/>
	<path d="M14.2,10.6c-0.1-0.2-0.3-0.3-0.5-0.2c-0.2,0.1-0.3,0.3-0.2,0.5c0.1,0.2,0.2,0.3,0.4,0.3c0,0,0.1,0,0.1,0
		C14.2,11,14.3,10.8,14.2,10.6z"/>
	<path d="M17.5,20.6c-0.1-0.2-0.3-0.3-0.5-0.2c-0.2,0.1-0.3,0.3-0.2,0.5c0,0.2,0.2,0.3,0.4,0.3c0,0,0.1,0,0.1,0
		C17.4,21,17.5,20.8,17.5,20.6z"/>
	<path d="M7.5,18.9c-0.2-0.1-0.4,0-0.5,0.2c-0.1,0.2,0,0.4,0.2,0.5c0,0,0.1,0,0.1,0c0.2,0,0.3-0.1,0.4-0.3C7.8,19.2,7.7,19,7.5,18.9
		z"/>
	<path d="M7,20.3c-0.2-0.1-0.4,0-0.5,0.2c-0.1,0.2,0,0.4,0.2,0.5c0,0,0.1,0,0.1,0c0.2,0,0.3-0.1,0.4-0.3C7.3,20.6,7.2,20.4,7,20.3z"
		/>
	<path d="M6.5,21.8c-0.2-0.1-0.4,0-0.5,0.2c-0.1,0.2,0,0.4,0.2,0.5c0,0,0.1,0,0.1,0c0.2,0,0.3-0.1,0.4-0.3C6.9,22,6.7,21.8,6.5,21.8
		z"/>
	<path d="M8.4,16c-0.2-0.1-0.4,0-0.5,0.2c-0.1,0.2,0,0.4,0.2,0.5c0,0,0.1,0,0.1,0c0.2,0,0.3-0.1,0.4-0.3C8.7,16.3,8.6,16.1,8.4,16z"
		/>
	<path d="M7.9,17.5c-0.2-0.1-0.4,0-0.5,0.2c-0.1,0.2,0,0.4,0.2,0.5c0,0,0.1,0,0.1,0c0.2,0,0.3-0.1,0.4-0.3
		C8.2,17.7,8.1,17.5,7.9,17.5z"/>
	<path d="M9.3,13.2c-0.2-0.1-0.4,0-0.5,0.2c-0.1,0.2,0,0.4,0.2,0.5c0,0,0.1,0,0.1,0c0.2,0,0.3-0.1,0.4-0.3
		C9.6,13.4,9.5,13.2,9.3,13.2z"/>
	<path d="M9.8,11.7c-0.2-0.1-0.4,0-0.5,0.2c-0.1,0.2,0,0.4,0.2,0.5c0,0,0.1,0,0.1,0c0.2,0,0.3-0.1,0.4-0.3C10.1,12,10,11.8,9.8,11.7
		z"/>
	<path d="M10.2,10.3c-0.2-0.1-0.4,0-0.5,0.2C9.7,10.8,9.8,11,10,11c0,0,0.1,0,0.1,0c0.2,0,0.3-0.1,0.4-0.3
		C10.5,10.6,10.4,10.4,10.2,10.3z"/>
	<path d="M8.9,14.6c-0.2-0.1-0.4,0-0.5,0.2c-0.1,0.2,0,0.4,0.2,0.5c0,0,0.1,0,0.1,0c0.2,0,0.3-0.1,0.4-0.3
		C9.2,14.9,9.1,14.7,8.9,14.6z"/>
	<path d="M4.3,18.2c-0.2-0.1-0.4,0-0.5,0.1c-0.1,0.2,0,0.4,0.1,0.5c0.1,0,0.1,0,0.2,0c0.1,0,0.3-0.1,0.3-0.2
		C4.5,18.5,4.4,18.3,4.3,18.2z"/>
	<path d="M8.4,11c0.1,0,0.1,0,0.2,0c0.1,0,0.3-0.1,0.3-0.2c0.1-0.2,0-0.4-0.1-0.5c-0.2-0.1-0.4,0-0.5,0.1C8.2,10.7,8.2,10.9,8.4,11z
		"/>
	<path d="M3.5,19.5c-0.2-0.1-0.4,0-0.5,0.1c-0.1,0.2,0,0.4,0.1,0.5c0.1,0,0.1,0,0.2,0c0.1,0,0.3-0.1,0.3-0.2
		C3.8,19.8,3.7,19.6,3.5,19.5z"/>
	<path d="M5,16.9c-0.2-0.1-0.4,0-0.5,0.1c-0.1,0.2,0,0.4,0.1,0.5c0.1,0,0.1,0,0.2,0c0.1,0,0.3-0.1,0.3-0.2C5.3,17.2,5.2,17,5,16.9z"
		/>
	<path d="M2.8,20.8c-0.2-0.1-0.4,0-0.5,0.1c-0.1,0.2,0,0.4,0.1,0.5c0.1,0,0.1,0,0.2,0c0.1,0,0.3-0.1,0.3-0.2
		C3,21.1,2.9,20.9,2.8,20.8z"/>
	<path d="M7.6,12.3c0.1,0,0.1,0,0.2,0c0.1,0,0.3-0.1,0.3-0.2c0.1-0.2,0-0.4-0.1-0.5c-0.2-0.1-0.4,0-0.5,0.1
		C7.4,12,7.5,12.2,7.6,12.3z"/>
	<path d="M7.3,13c-0.2-0.1-0.4,0-0.5,0.1c-0.1,0.2,0,0.4,0.1,0.5c0.1,0,0.1,0.1,0.2,0.1c0.1,0,0.3-0.1,0.3-0.2
		C7.5,13.3,7.4,13.1,7.3,13z"/>
	<path d="M6.1,14.9c0.1,0,0.1,0,0.2,0c0.1,0,0.3-0.1,0.3-0.2c0.1-0.2,0-0.4-0.1-0.5c-0.2-0.1-0.4,0-0.5,0.1S6,14.8,6.1,14.9z"/>
	<path d="M5.8,15.6c-0.2-0.1-0.4,0-0.5,0.1c-0.1,0.2,0,0.4,0.1,0.5c0.1,0,0.1,0.1,0.2,0.1c0.1,0,0.3-0.1,0.3-0.2
		C6,15.9,5.9,15.7,5.8,15.6z"/>
</g>
</svg>
